<svg width="24" height="24" viewBox="0 0 24 24" fill="none" xmlns="http://www.w3.org/2000/svg">
<path d="M12 22C17.5228 22 22 17.5228 22 12C22 6.47715 17.5228 2 12 2C6.47715 2 2 6.47715 2 12C2 17.5228 6.47715 22 12 22Z" stroke="#001240" stroke-width="1.5" stroke-linecap="round"/>
<path d="M2 12H22" stroke="#001240" stroke-width="1.5" stroke-linecap="round"/>
<path d="M11.2911 2.83407C11.6556 2.37274 12.3444 2.37274 12.7089 2.83407C14.7688 5.4414 15.9304 8.65803 16 12C15.9304 15.342 14.7688 18.5586 12.7089 21.1659C12.3444 21.6273 11.6556 21.6273 11.2911 21.1659C9.2312 18.5586 8.06962 15.342 8 12C8.06962 8.65803 9.2312 5.4414 11.2911 2.83407Z" stroke="#001240" stroke-width="1.5" stroke-linecap="round"/>
</svg>
