<svg width="198" height="50" viewBox="0 0 198 50" fill="none" xmlns="http://www.w3.org/2000/svg">
<path fill-rule="evenodd" clip-rule="evenodd" d="M30.1138 37.5614C26.2333 37.7416 22.9846 38.3637 21.5968 38.8569L21.5762 38.8642L21.5552 38.8703C17.4598 40.0709 13.8141 40.4638 10.7723 40.4279C10.3428 40.4229 9.99867 40.0701 10.0037 39.6399C10.0088 39.2098 10.3611 38.8652 10.7906 38.8702C13.6783 38.9042 17.1632 38.5324 21.0979 37.3812C22.6959 36.8185 26.101 36.1883 30.0418 36.0052C34.009 35.821 38.6199 36.0844 42.5783 37.3826C44.5451 38.0276 48.2049 38.8938 52.3462 38.9481C52.6332 38.9518 52.9223 38.9517 53.2132 38.9473C53.6427 38.9408 53.9961 39.2843 54.0026 39.7144C54.009 40.1445 53.6661 40.4985 53.2366 40.5049C52.9307 40.5095 52.627 40.5097 52.3259 40.5057C47.9987 40.449 44.1813 39.5475 42.0942 38.863C38.3861 37.647 33.9856 37.3815 30.1138 37.5614Z" fill="#005BBB"/>
<path fill-rule="evenodd" clip-rule="evenodd" d="M19.6667 43.5726C23.5472 43.3923 26.7959 42.7702 28.1837 42.2771L28.2043 42.2697L28.2253 42.2636C32.3208 41.063 35.9664 40.6702 39.0082 40.706C39.4378 40.711 39.7819 41.0638 39.7768 41.494C39.7717 41.9241 39.4195 42.2687 38.9899 42.2637C36.1022 42.2297 32.6173 42.6015 28.6826 43.7527C27.0846 44.3155 23.6796 44.9457 19.7387 45.1287C15.7715 45.313 11.1606 45.0495 7.20221 43.7513C5.77634 43.2837 3.45084 42.6968 0.692078 42.3906C0.265147 42.3433 -0.0425992 41.9582 0.00470874 41.5307C0.0520201 41.1031 0.436468 40.7949 0.8634 40.8423C3.73507 41.161 6.1653 41.7721 7.6863 42.2709C11.3944 43.4869 15.7949 43.7524 19.6667 43.5726Z" fill="#005BBB"/>
<path fill-rule="evenodd" clip-rule="evenodd" d="M19.7781 33.3681C19.7918 33.7981 19.4548 34.1577 19.0255 34.1714C14.8477 34.3048 11.289 34.9708 9.81658 35.4941L9.79597 35.5014L9.77497 35.5075C6.65582 36.4219 3.79738 36.8678 1.26771 37.0126C0.838866 37.0371 0.471352 36.7088 0.446846 36.2794C0.42234 35.8499 0.750122 35.4818 1.17897 35.4573C3.58765 35.3194 6.32221 34.8948 9.31765 34.0184C11.0085 33.423 14.7299 32.7499 18.9759 32.6144C19.4053 32.6007 19.7644 32.9382 19.7781 33.3681Z" fill="#005BBB"/>
<path fill-rule="evenodd" clip-rule="evenodd" d="M42.8837 47.2382C39.7477 47.4934 37.2175 48.0086 36.0407 48.4268L36.0201 48.4341L35.9991 48.4403C26.8033 51.1359 19.8693 49.7614 16.9381 48.5943C16.539 48.4354 16.344 47.9825 16.5027 47.5828C16.6614 47.183 17.1137 46.9878 17.5128 47.1467C20.1196 48.1846 26.6894 49.5411 35.5418 46.9512C36.9068 46.4704 39.5772 45.9443 42.7577 45.6855C45.9679 45.4244 49.7643 45.4299 53.3577 46.0545C53.7809 46.128 54.0644 46.5312 53.991 46.9551C53.9175 47.3789 53.5149 47.6629 53.0917 47.5893C49.6646 46.9937 46.0066 46.9842 42.8837 47.2382Z" fill="#005BBB"/>
<path d="M14.7694 0C14.7694 0 16.456 26.7342 11.225 31.9417C11.225 31.9417 18.3138 28.8395 32.489 31.9417C32.489 31.9417 26.3469 10.6465 14.7694 0Z" fill="#005BBB"/>
<path d="M38.9415 3.57349C38.9415 3.57349 37.2549 30.3077 42.4859 35.5152C42.4859 35.5152 35.3972 32.413 21.2219 35.5152C21.2219 35.5152 27.364 14.22 38.9415 3.57349Z" fill="#FFD500"/>
<path d="M70.4641 38.736C70.3201 38.736 70.1521 38.696 69.9601 38.616C69.3201 38.328 69.1441 37.872 69.4321 37.248L76.9201 20.496C77.2081 19.888 77.6641 19.712 78.2881 19.968C78.9441 20.24 79.1281 20.696 78.8401 21.336L71.3281 38.064C71.1361 38.512 70.8481 38.736 70.4641 38.736ZM73.2481 32.52C72.9601 32.648 72.6961 32.664 72.4561 32.568C72.2161 32.472 72.0241 32.288 71.8801 32.016L66.4321 21.312C66.2881 21.04 66.2641 20.776 66.3601 20.52C66.4721 20.264 66.6721 20.08 66.9601 19.968C67.2321 19.84 67.4881 19.824 67.7281 19.92C67.9841 20 68.1761 20.184 68.3041 20.472L73.5601 31.152C73.7201 31.44 73.7761 31.712 73.7281 31.968C73.6801 32.208 73.5201 32.392 73.2481 32.52Z" fill="#001240"/>
<path d="M86.2912 33.096C85.0912 33.096 84.0192 32.808 83.0752 32.232C82.1312 31.656 81.3872 30.864 80.8432 29.856C80.2992 28.848 80.0272 27.712 80.0272 26.448C80.0272 25.168 80.3152 24.032 80.8912 23.04C81.4832 22.032 82.2752 21.24 83.2672 20.664C84.2752 20.072 85.4032 19.776 86.6512 19.776C87.9152 19.776 89.0432 20.072 90.0352 20.664C91.0272 21.24 91.8112 22.032 92.3872 23.04C92.9792 24.048 93.2832 25.184 93.2992 26.448L92.4352 26.664C92.4352 27.88 92.1632 28.976 91.6192 29.952C91.0752 30.928 90.3392 31.696 89.4112 32.256C88.4992 32.816 87.4592 33.096 86.2912 33.096ZM86.6512 31.128C87.5152 31.128 88.2832 30.928 88.9552 30.528C89.6272 30.112 90.1552 29.552 90.5392 28.848C90.9392 28.128 91.1392 27.328 91.1392 26.448C91.1392 25.552 90.9392 24.752 90.5392 24.048C90.1552 23.328 89.6272 22.768 88.9552 22.368C88.2832 21.952 87.5152 21.744 86.6512 21.744C85.8192 21.744 85.0592 21.952 84.3712 22.368C83.6832 22.768 83.1392 23.328 82.7392 24.048C82.3552 24.752 82.1632 25.552 82.1632 26.448C82.1632 27.328 82.3552 28.128 82.7392 28.848C83.1392 29.552 83.6832 30.112 84.3712 30.528C85.0592 30.928 85.8192 31.128 86.6512 31.128ZM92.1712 33.024C91.8512 33.024 91.5872 32.92 91.3792 32.712C91.1712 32.504 91.0672 32.24 91.0672 31.92V28.08L91.5232 25.776L93.2992 26.448V31.92C93.2992 32.24 93.1872 32.504 92.9632 32.712C92.7552 32.92 92.4912 33.024 92.1712 33.024Z" fill="#001240"/>
<path d="M102.822 33.096C101.558 33.096 100.43 32.808 99.4379 32.232C98.4459 31.64 97.6619 30.848 97.0859 29.856C96.5259 28.848 96.2459 27.712 96.2459 26.448C96.2459 25.152 96.5179 24 97.0619 22.992C97.6219 21.984 98.3819 21.2 99.3419 20.64C100.302 20.064 101.414 19.776 102.678 19.776C103.622 19.776 104.494 19.96 105.294 20.328C106.094 20.696 106.806 21.248 107.43 21.984C107.638 22.208 107.71 22.448 107.646 22.704C107.598 22.96 107.438 23.184 107.166 23.376C106.974 23.52 106.75 23.568 106.494 23.52C106.238 23.472 106.014 23.336 105.822 23.112C104.974 22.2 103.926 21.744 102.678 21.744C101.83 21.744 101.078 21.944 100.422 22.344C99.7819 22.744 99.2779 23.296 98.9099 24C98.5579 24.688 98.3819 25.504 98.3819 26.448C98.3819 27.344 98.5659 28.144 98.9339 28.848C99.3179 29.552 99.8459 30.112 100.518 30.528C101.19 30.928 101.958 31.128 102.822 31.128C103.414 31.128 103.942 31.056 104.406 30.912C104.87 30.768 105.286 30.536 105.654 30.216C105.878 30.024 106.11 29.92 106.35 29.904C106.606 29.888 106.83 29.96 107.022 30.12C107.262 30.328 107.398 30.56 107.43 30.816C107.462 31.072 107.374 31.296 107.166 31.488C106.014 32.56 104.566 33.096 102.822 33.096Z" fill="#001240"/>
<path d="M112.389 28.008C112.069 28.008 111.805 27.904 111.597 27.696C111.389 27.472 111.285 27.2 111.285 26.88V15.36C111.285 15.024 111.389 14.76 111.597 14.568C111.805 14.36 112.069 14.256 112.389 14.256C112.725 14.256 112.989 14.36 113.181 14.568C113.389 14.76 113.493 15.024 113.493 15.36V26.88C113.493 27.2 113.389 27.472 113.181 27.696C112.989 27.904 112.725 28.008 112.389 28.008ZM122.445 33.024C122.125 33.024 121.853 32.92 121.629 32.712C121.421 32.488 121.317 32.224 121.317 31.92V25.872C121.317 24.928 121.141 24.16 120.789 23.568C120.437 22.96 119.965 22.512 119.373 22.224C118.781 21.92 118.101 21.768 117.333 21.768C116.613 21.768 115.965 21.912 115.389 22.2C114.813 22.488 114.349 22.872 113.997 23.352C113.661 23.832 113.493 24.384 113.493 25.008H112.053C112.069 24 112.325 23.104 112.821 22.32C113.317 21.52 113.989 20.896 114.837 20.448C115.685 19.984 116.637 19.752 117.693 19.752C118.813 19.752 119.813 19.992 120.693 20.472C121.573 20.936 122.269 21.624 122.781 22.536C123.293 23.448 123.549 24.56 123.549 25.872V31.92C123.549 32.224 123.437 32.488 123.213 32.712C123.005 32.92 122.749 33.024 122.445 33.024ZM112.389 33.024C112.069 33.024 111.805 32.92 111.597 32.712C111.389 32.504 111.285 32.24 111.285 31.92V20.976C111.285 20.64 111.389 20.376 111.597 20.184C111.805 19.976 112.069 19.872 112.389 19.872C112.725 19.872 112.989 19.976 113.181 20.184C113.389 20.376 113.493 20.64 113.493 20.976V31.92C113.493 32.24 113.389 32.504 113.181 32.712C112.989 32.92 112.725 33.024 112.389 33.024Z" fill="#001240"/>
<path d="M132.541 33C131.725 33 130.989 32.8 130.333 32.4C129.677 31.984 129.165 31.432 128.797 30.744C128.429 30.04 128.245 29.24 128.245 28.344V16.8C128.245 16.48 128.341 16.216 128.533 16.008C128.741 15.8 129.005 15.696 129.325 15.696C129.645 15.696 129.909 15.8 130.117 16.008C130.325 16.216 130.429 16.48 130.429 16.8V28.344C130.429 29.064 130.629 29.656 131.029 30.12C131.429 30.584 131.933 30.816 132.541 30.816H133.285C133.557 30.816 133.781 30.92 133.957 31.128C134.149 31.336 134.245 31.6 134.245 31.92C134.245 32.24 134.125 32.504 133.885 32.712C133.661 32.904 133.365 33 132.997 33H132.541ZM126.949 22.248C126.661 22.248 126.421 22.16 126.229 21.984C126.037 21.808 125.941 21.584 125.941 21.312C125.941 21.024 126.037 20.792 126.229 20.616C126.421 20.44 126.661 20.352 126.949 20.352H132.733C133.021 20.352 133.261 20.44 133.453 20.616C133.645 20.792 133.741 21.024 133.741 21.312C133.741 21.584 133.645 21.808 133.453 21.984C133.261 22.16 133.021 22.248 132.733 22.248H126.949Z" fill="#001240"/>
<path d="M154.678 33.024C154.358 33.024 154.094 32.92 153.886 32.712C153.678 32.504 153.574 32.24 153.574 31.92V25.032C153.574 23.976 153.302 23.168 152.758 22.608C152.23 22.048 151.542 21.768 150.694 21.768C149.798 21.768 149.062 22.08 148.486 22.704C147.926 23.312 147.646 24.104 147.646 25.08H145.774C145.79 24.024 146.022 23.096 146.47 22.296C146.918 21.496 147.542 20.872 148.342 20.424C149.142 19.976 150.046 19.752 151.054 19.752C151.982 19.752 152.798 19.96 153.502 20.376C154.222 20.792 154.782 21.4 155.182 22.2C155.582 22.984 155.782 23.928 155.782 25.032V31.92C155.782 32.24 155.678 32.504 155.47 32.712C155.278 32.92 155.014 33.024 154.678 33.024ZM138.358 33.024C138.038 33.024 137.774 32.92 137.566 32.712C137.358 32.504 137.254 32.24 137.254 31.92V21C137.254 20.664 137.358 20.4 137.566 20.208C137.774 20 138.038 19.896 138.358 19.896C138.694 19.896 138.958 20 139.15 20.208C139.358 20.4 139.462 20.664 139.462 21V31.92C139.462 32.24 139.358 32.504 139.15 32.712C138.958 32.92 138.694 33.024 138.358 33.024ZM146.542 33.024C146.222 33.024 145.958 32.92 145.75 32.712C145.542 32.504 145.438 32.24 145.438 31.92V25.032C145.438 23.976 145.166 23.168 144.622 22.608C144.094 22.048 143.406 21.768 142.558 21.768C141.662 21.768 140.918 22.072 140.326 22.68C139.75 23.288 139.462 24.064 139.462 25.008H138.022C138.038 23.984 138.254 23.08 138.67 22.296C139.102 21.496 139.686 20.872 140.422 20.424C141.158 19.976 141.99 19.752 142.918 19.752C143.846 19.752 144.662 19.96 145.366 20.376C146.086 20.792 146.646 21.4 147.046 22.2C147.446 22.984 147.646 23.928 147.646 25.032V31.92C147.646 32.24 147.542 32.504 147.334 32.712C147.142 32.92 146.878 33.024 146.542 33.024Z" fill="#001240"/>
<path d="M165.44 33.096C164.24 33.096 163.168 32.808 162.224 32.232C161.28 31.656 160.536 30.864 159.992 29.856C159.448 28.848 159.176 27.712 159.176 26.448C159.176 25.168 159.464 24.032 160.04 23.04C160.632 22.032 161.424 21.24 162.416 20.664C163.424 20.072 164.552 19.776 165.8 19.776C167.064 19.776 168.192 20.072 169.184 20.664C170.176 21.24 170.96 22.032 171.536 23.04C172.128 24.048 172.432 25.184 172.448 26.448L171.584 26.664C171.584 27.88 171.312 28.976 170.768 29.952C170.224 30.928 169.488 31.696 168.56 32.256C167.648 32.816 166.608 33.096 165.44 33.096ZM165.8 31.128C166.664 31.128 167.432 30.928 168.104 30.528C168.776 30.112 169.304 29.552 169.688 28.848C170.088 28.128 170.288 27.328 170.288 26.448C170.288 25.552 170.088 24.752 169.688 24.048C169.304 23.328 168.776 22.768 168.104 22.368C167.432 21.952 166.664 21.744 165.8 21.744C164.968 21.744 164.208 21.952 163.52 22.368C162.832 22.768 162.288 23.328 161.888 24.048C161.504 24.752 161.312 25.552 161.312 26.448C161.312 27.328 161.504 28.128 161.888 28.848C162.288 29.552 162.832 30.112 163.52 30.528C164.208 30.928 164.968 31.128 165.8 31.128ZM171.32 33.024C171 33.024 170.736 32.92 170.528 32.712C170.32 32.504 170.216 32.24 170.216 31.92V28.08L170.672 25.776L172.448 26.448V31.92C172.448 32.24 172.336 32.504 172.112 32.712C171.904 32.92 171.64 33.024 171.32 33.024Z" fill="#001240"/>
<path d="M180.986 33C180.17 33 179.434 32.8 178.778 32.4C178.122 31.984 177.61 31.432 177.242 30.744C176.874 30.04 176.69 29.24 176.69 28.344V16.8C176.69 16.48 176.786 16.216 176.978 16.008C177.186 15.8 177.45 15.696 177.77 15.696C178.09 15.696 178.354 15.8 178.562 16.008C178.77 16.216 178.874 16.48 178.874 16.8V28.344C178.874 29.064 179.074 29.656 179.474 30.12C179.874 30.584 180.378 30.816 180.986 30.816H181.73C182.002 30.816 182.226 30.92 182.402 31.128C182.594 31.336 182.69 31.6 182.69 31.92C182.69 32.24 182.57 32.504 182.33 32.712C182.106 32.904 181.81 33 181.442 33H180.986ZM175.394 22.248C175.106 22.248 174.866 22.16 174.674 21.984C174.482 21.808 174.386 21.584 174.386 21.312C174.386 21.024 174.482 20.792 174.674 20.616C174.866 20.44 175.106 20.352 175.394 20.352H181.178C181.466 20.352 181.706 20.44 181.898 20.616C182.09 20.792 182.186 21.024 182.186 21.312C182.186 21.584 182.09 21.808 181.898 21.984C181.706 22.16 181.466 22.248 181.178 22.248H175.394Z" fill="#001240"/>
<path d="M191.795 33.096C190.467 33.096 189.291 32.816 188.267 32.256C187.259 31.68 186.467 30.896 185.891 29.904C185.315 28.896 185.027 27.744 185.027 26.448C185.027 25.136 185.299 23.984 185.843 22.992C186.387 21.984 187.139 21.2 188.099 20.64C189.059 20.064 190.171 19.776 191.435 19.776C192.667 19.776 193.731 20.056 194.627 20.616C195.523 21.16 196.211 21.92 196.691 22.896C197.171 23.856 197.411 24.968 197.411 26.232C197.411 26.504 197.315 26.736 197.123 26.928C196.947 27.104 196.707 27.192 196.403 27.192H186.539V25.416H196.427L195.443 26.112C195.427 25.264 195.259 24.504 194.939 23.832C194.619 23.16 194.163 22.632 193.571 22.248C192.979 21.864 192.267 21.672 191.435 21.672C190.523 21.672 189.731 21.88 189.059 22.296C188.403 22.712 187.899 23.28 187.547 24C187.195 24.72 187.019 25.536 187.019 26.448C187.019 27.36 187.219 28.176 187.619 28.896C188.035 29.6 188.595 30.16 189.299 30.576C190.019 30.992 190.851 31.2 191.795 31.2C192.307 31.2 192.835 31.104 193.379 30.912C193.939 30.72 194.379 30.496 194.699 30.24C194.923 30.064 195.163 29.976 195.419 29.976C195.675 29.96 195.899 30.032 196.091 30.192C196.331 30.416 196.459 30.664 196.475 30.936C196.491 31.192 196.379 31.416 196.139 31.608C195.595 32.04 194.915 32.4 194.099 32.688C193.299 32.96 192.531 33.096 191.795 33.096Z" fill="#001240"/>
<path d="M178.952 41.128C178.803 41.128 178.672 41.0746 178.56 40.968C178.453 40.856 178.4 40.7253 178.4 40.576C178.4 40.4213 178.453 40.2906 178.56 40.184C178.672 40.072 178.803 40.016 178.952 40.016C179.107 40.016 179.237 40.072 179.344 40.184C179.451 40.2906 179.504 40.4213 179.504 40.576C179.504 40.7253 179.451 40.856 179.344 40.968C179.237 41.0746 179.107 41.128 178.952 41.128Z" fill="#001240"/>
<path d="M182.61 41.032C182.184 41.032 181.802 40.936 181.466 40.744C181.136 40.5466 180.874 40.2826 180.682 39.952C180.496 39.616 180.402 39.2373 180.402 38.816C180.402 38.384 180.496 38 180.682 37.664C180.869 37.328 181.125 37.0666 181.45 36.88C181.776 36.688 182.149 36.592 182.57 36.592C182.885 36.592 183.173 36.6533 183.434 36.776C183.696 36.8933 183.93 37.072 184.138 37.312C184.213 37.3973 184.24 37.4853 184.218 37.576C184.197 37.6666 184.138 37.7466 184.042 37.816C183.968 37.8693 183.885 37.888 183.794 37.872C183.704 37.8506 183.621 37.8026 183.546 37.728C183.285 37.4506 182.96 37.312 182.57 37.312C182.298 37.312 182.058 37.376 181.85 37.504C181.642 37.6266 181.48 37.8 181.362 38.024C181.245 38.248 181.186 38.512 181.186 38.816C181.186 39.104 181.245 39.36 181.362 39.584C181.485 39.808 181.653 39.9866 181.866 40.12C182.08 40.248 182.328 40.312 182.61 40.312C182.797 40.312 182.96 40.2906 183.098 40.248C183.242 40.2 183.373 40.128 183.49 40.032C183.576 39.9626 183.664 39.9253 183.754 39.92C183.845 39.9093 183.925 39.9333 183.994 39.992C184.085 40.0666 184.136 40.152 184.146 40.248C184.157 40.3386 184.125 40.4213 184.05 40.496C183.666 40.8533 183.186 41.032 182.61 41.032Z" fill="#001240"/>
<path d="M186.471 41C186.236 41 186.028 40.936 185.847 40.808C185.666 40.68 185.524 40.5066 185.423 40.288C185.322 40.064 185.271 39.808 185.271 39.52V35.152C185.271 35.0346 185.308 34.9386 185.383 34.864C185.458 34.7893 185.554 34.752 185.671 34.752C185.788 34.752 185.884 34.7893 185.959 34.864C186.034 34.9386 186.071 35.0346 186.071 35.152V39.52C186.071 39.7173 186.108 39.88 186.183 40.008C186.258 40.136 186.354 40.2 186.471 40.2H186.671C186.778 40.2 186.863 40.2373 186.927 40.312C186.996 40.3866 187.031 40.4826 187.031 40.6C187.031 40.7173 186.98 40.8133 186.879 40.888C186.778 40.9626 186.647 41 186.487 41H186.471Z" fill="#001240"/>
<path d="M189.67 41.04C189.302 41.04 188.971 40.9626 188.678 40.808C188.39 40.648 188.16 40.416 187.99 40.112C187.824 39.808 187.742 39.4346 187.742 38.992V37.024C187.742 36.9066 187.779 36.8106 187.854 36.736C187.934 36.656 188.032 36.616 188.15 36.616C188.267 36.616 188.363 36.656 188.438 36.736C188.518 36.8106 188.558 36.9066 188.558 37.024V38.992C188.558 39.2906 188.614 39.5386 188.726 39.736C188.838 39.928 188.99 40.072 189.182 40.168C189.374 40.2586 189.59 40.304 189.83 40.304C190.059 40.304 190.262 40.2586 190.438 40.168C190.619 40.0773 190.763 39.9546 190.87 39.8C190.976 39.6453 191.03 39.472 191.03 39.28H191.534C191.534 39.6106 191.451 39.9093 191.286 40.176C191.126 40.4426 190.904 40.6533 190.622 40.808C190.344 40.9626 190.027 41.04 189.67 41.04ZM191.438 41C191.32 41 191.222 40.9626 191.142 40.888C191.067 40.808 191.03 40.7093 191.03 40.592V37.024C191.03 36.9013 191.067 36.8026 191.142 36.728C191.222 36.6533 191.32 36.616 191.438 36.616C191.56 36.616 191.659 36.6533 191.734 36.728C191.808 36.8026 191.846 36.9013 191.846 37.024V40.592C191.846 40.7093 191.808 40.808 191.734 40.888C191.659 40.9626 191.56 41 191.438 41Z" fill="#001240"/>
<path d="M195.483 41.032C195.067 41.032 194.693 40.936 194.363 40.744C194.032 40.5466 193.771 40.28 193.579 39.944C193.387 39.608 193.288 39.2293 193.283 38.808V35.16C193.283 35.0373 193.32 34.9386 193.395 34.864C193.475 34.7893 193.573 34.752 193.691 34.752C193.813 34.752 193.912 34.7893 193.987 34.864C194.061 34.9386 194.099 35.0373 194.099 35.16V37.32C194.285 37.096 194.509 36.92 194.771 36.792C195.037 36.6586 195.328 36.592 195.643 36.592C196.032 36.592 196.381 36.6906 196.691 36.888C197 37.08 197.243 37.344 197.419 37.68C197.6 38.0106 197.691 38.3866 197.691 38.808C197.691 39.2293 197.592 39.608 197.395 39.944C197.203 40.28 196.941 40.5466 196.611 40.744C196.28 40.936 195.904 41.032 195.483 41.032ZM195.483 40.312C195.755 40.312 195.997 40.248 196.211 40.12C196.424 39.9866 196.592 39.8053 196.715 39.576C196.843 39.3466 196.907 39.0906 196.907 38.808C196.907 38.52 196.843 38.264 196.715 38.04C196.592 37.816 196.424 37.64 196.211 37.512C195.997 37.3786 195.755 37.312 195.483 37.312C195.216 37.312 194.973 37.3786 194.755 37.512C194.541 37.64 194.373 37.816 194.251 38.04C194.128 38.264 194.067 38.52 194.067 38.808C194.067 39.0906 194.128 39.3466 194.251 39.576C194.373 39.8053 194.541 39.9866 194.755 40.12C194.973 40.248 195.216 40.312 195.483 40.312Z" fill="#001240"/>
<path fill-rule="evenodd" clip-rule="evenodd" d="M178.488 41.0369C178.364 40.9071 178.3 40.752 178.3 40.576C178.3 40.3955 178.363 40.2392 178.489 40.1133C178.619 39.9838 178.774 39.916 178.952 39.916C179.134 39.916 179.29 39.9829 179.416 40.1141C179.541 40.2399 179.604 40.396 179.604 40.576C179.604 40.752 179.54 40.9071 179.416 41.0369L179.415 41.0387C179.289 41.1647 179.132 41.228 178.952 41.228C178.776 41.228 178.621 41.1641 178.491 41.0404L178.488 41.0369ZM179.344 40.184C179.237 40.072 179.107 40.016 178.952 40.016C178.803 40.016 178.672 40.072 178.56 40.184C178.453 40.2906 178.4 40.4213 178.4 40.576C178.4 40.7253 178.453 40.856 178.56 40.968C178.672 41.0746 178.803 41.128 178.952 41.128C179.107 41.128 179.237 41.0746 179.344 40.968C179.451 40.856 179.504 40.7253 179.504 40.576C179.504 40.4213 179.451 40.2906 179.344 40.184ZM181.415 40.8298C181.07 40.6239 180.796 40.3477 180.596 40.0022L180.595 40.0006C180.399 39.6483 180.302 39.2526 180.302 38.816C180.302 38.3691 180.399 37.968 180.595 37.6154C180.79 37.2641 181.059 36.9895 181.4 36.7935C181.742 36.5917 182.133 36.492 182.57 36.492C182.898 36.492 183.2 36.5559 183.476 36.6851C183.752 36.809 183.998 36.9969 184.214 37.2465C184.304 37.3501 184.346 37.47 184.316 37.5989C184.287 37.7188 184.211 37.8176 184.101 37.897C184.004 37.966 183.894 37.9911 183.777 37.9705L183.771 37.9695C183.66 37.9433 183.562 37.8847 183.476 37.7987L183.473 37.7966C183.232 37.5398 182.933 37.412 182.57 37.412C182.315 37.412 182.093 37.4719 181.903 37.5891L181.901 37.5901C181.71 37.7029 181.56 37.8621 181.451 38.0704C181.342 38.2774 181.286 38.5249 181.286 38.816C181.286 39.0897 181.342 39.3291 181.45 39.5368C181.565 39.7453 181.721 39.9108 181.919 40.0347C182.114 40.1518 182.344 40.212 182.61 40.212C182.789 40.212 182.941 40.1916 183.068 40.1527C183.2 40.1086 183.319 40.0426 183.427 39.9546C183.524 39.8755 183.631 39.8278 183.746 39.8203C183.862 39.8073 183.969 39.8395 184.058 39.9152C184.164 40.0025 184.231 40.1097 184.246 40.2366C184.26 40.3625 184.213 40.4743 184.121 40.5667L184.118 40.5692C183.714 40.9455 183.209 41.132 182.61 41.132C182.168 41.132 181.769 41.0323 181.417 40.8308L181.415 40.8298ZM183.994 39.992C183.925 39.9333 183.845 39.9093 183.754 39.92C183.664 39.9253 183.576 39.9626 183.49 40.032C183.373 40.128 183.242 40.2 183.098 40.248C182.96 40.2906 182.797 40.312 182.61 40.312C182.328 40.312 182.08 40.248 181.866 40.12C181.653 39.9866 181.485 39.808 181.362 39.584C181.245 39.36 181.186 39.104 181.186 38.816C181.186 38.512 181.245 38.248 181.362 38.024C181.48 37.8 181.642 37.6266 181.85 37.504C182.058 37.376 182.298 37.312 182.57 37.312C182.96 37.312 183.285 37.4506 183.546 37.728C183.621 37.8026 183.704 37.8506 183.794 37.872C183.885 37.888 183.968 37.8693 184.042 37.816C184.138 37.7466 184.197 37.6666 184.218 37.576C184.24 37.4853 184.213 37.3973 184.138 37.312C183.93 37.072 183.696 36.8933 183.434 36.776C183.173 36.6533 182.885 36.592 182.57 36.592C182.149 36.592 181.776 36.688 181.45 36.88C181.125 37.0666 180.869 37.328 180.682 37.664C180.496 38 180.402 38.384 180.402 38.816C180.402 39.2373 180.496 39.616 180.682 39.952C180.874 40.2826 181.136 40.5466 181.466 40.744C181.802 40.936 182.184 41.032 182.61 41.032C183.186 41.032 183.666 40.8533 184.05 40.496C184.125 40.4213 184.157 40.3386 184.146 40.248C184.136 40.152 184.085 40.0666 183.994 39.992ZM185.332 40.3292C185.224 40.0902 185.171 39.8198 185.171 39.52V35.152C185.171 35.0114 185.217 34.8889 185.312 34.7933C185.408 34.6977 185.53 34.652 185.671 34.652C185.812 34.652 185.934 34.6977 186.03 34.7933C186.125 34.8889 186.171 35.0114 186.171 35.152V39.52C186.171 39.7053 186.206 39.8491 186.269 39.9576C186.332 40.0642 186.399 40.1 186.471 40.1H186.671C186.803 40.1 186.917 40.1475 187.002 40.2454C187.09 40.3411 187.131 40.4622 187.131 40.6C187.131 40.7517 187.063 40.8766 186.938 40.9685C186.816 41.0589 186.663 41.1 186.487 41.1H186.471C186.217 41.1 185.989 41.0303 185.789 40.8897C185.592 40.7507 185.44 40.5623 185.332 40.3292ZM186.927 40.312C186.863 40.2373 186.778 40.2 186.671 40.2H186.471C186.354 40.2 186.258 40.136 186.183 40.008C186.108 39.88 186.071 39.7173 186.071 39.52V35.152C186.071 35.0346 186.034 34.9386 185.959 34.864C185.884 34.7893 185.788 34.752 185.671 34.752C185.554 34.752 185.458 34.7893 185.383 34.864C185.308 34.9386 185.271 35.0346 185.271 35.152V39.52C185.271 39.808 185.322 40.064 185.423 40.288C185.524 40.5066 185.666 40.68 185.847 40.808C186.028 40.936 186.236 41 186.471 41H186.487C186.647 41 186.778 40.9626 186.879 40.888C186.98 40.8133 187.031 40.7173 187.031 40.6C187.031 40.4826 186.996 40.3866 186.927 40.312ZM188.629 40.8954C188.324 40.7259 188.081 40.4801 187.902 40.1609L187.902 40.1598C187.726 39.8376 187.641 39.4468 187.641 38.992V37.024C187.641 36.8834 187.687 36.7609 187.783 36.6653C187.882 36.5658 188.007 36.516 188.149 36.516C188.291 36.516 188.413 36.5651 188.508 36.6652C188.608 36.76 188.657 36.8823 188.657 37.024V38.992C188.657 39.2784 188.711 39.5079 188.812 39.6861C188.914 39.8613 189.052 39.9911 189.225 40.078C189.402 40.1613 189.603 40.204 189.829 40.204C190.045 40.204 190.232 40.1614 190.392 40.0791L190.393 40.0785C190.56 39.9948 190.691 39.8829 190.787 39.7432C190.882 39.6056 190.929 39.4522 190.929 39.28V37.024C190.929 36.8794 190.974 36.7537 191.071 36.6573L191.073 36.6548C191.173 36.5616 191.297 36.516 191.437 36.516C191.582 36.516 191.708 36.5608 191.804 36.6573C191.901 36.7537 191.945 36.8794 191.945 37.024V40.592C191.945 40.7326 191.9 40.8563 191.807 40.9562L191.804 40.9587C191.708 41.0552 191.582 41.1 191.437 41.1C191.297 41.1 191.173 41.0544 191.073 40.9611L191.068 40.9564C191.003 40.8869 190.962 40.8059 190.942 40.7158C190.858 40.7822 190.767 40.8421 190.67 40.8955C190.376 41.0593 190.041 41.14 189.669 41.14C189.287 41.14 188.94 41.0595 188.631 40.8964L188.629 40.8954ZM190.621 40.808C190.734 40.7465 190.836 40.6762 190.929 40.597C190.931 40.5953 190.933 40.5936 190.935 40.592C190.968 40.564 190.999 40.5349 191.029 40.5047V40.592C191.029 40.6085 191.03 40.6246 191.032 40.6404C191.041 40.7367 191.077 40.8192 191.141 40.888C191.221 40.9626 191.32 41 191.437 41C191.56 41 191.659 40.9626 191.733 40.888C191.808 40.808 191.845 40.7093 191.845 40.592V37.024C191.845 36.9013 191.808 36.8026 191.733 36.728C191.659 36.6533 191.56 36.616 191.437 36.616C191.32 36.616 191.221 36.6533 191.141 36.728C191.067 36.8026 191.029 36.9013 191.029 37.024V39.28C191.029 39.4318 190.996 39.5719 190.929 39.7003C190.912 39.7344 190.892 39.7676 190.869 39.8C190.763 39.9546 190.619 40.0773 190.437 40.168C190.261 40.2586 190.059 40.304 189.829 40.304C189.589 40.304 189.373 40.2586 189.181 40.168C188.989 40.072 188.837 39.928 188.725 39.736C188.613 39.5386 188.557 39.2906 188.557 38.992V37.024C188.557 36.9066 188.517 36.8106 188.437 36.736C188.363 36.656 188.267 36.616 188.149 36.616C188.032 36.616 187.933 36.656 187.853 36.736C187.779 36.8106 187.741 36.9066 187.741 37.024V38.992C187.741 39.4346 187.824 39.808 187.989 40.112C188.16 40.416 188.389 40.648 188.677 40.808C188.971 40.9626 189.301 41.04 189.669 41.04C190.027 41.04 190.344 40.9626 190.621 40.808ZM194.312 40.8305L194.311 40.8299C193.966 40.6236 193.692 40.3445 193.492 39.9936C193.291 39.6416 193.188 39.246 193.183 38.8092L193.183 38.808L193.183 35.16C193.183 35.0154 193.227 34.8897 193.324 34.7933L193.326 34.7908C193.426 34.6976 193.55 34.652 193.691 34.652C193.835 34.652 193.961 34.6968 194.057 34.7933C194.154 34.8897 194.199 35.0154 194.199 35.16V37.0675C194.354 36.9201 194.53 36.7983 194.726 36.7024C195.007 36.5618 195.313 36.492 195.643 36.492C196.049 36.492 196.418 36.5953 196.744 36.8033C196.744 36.8034 196.744 36.8032 196.744 36.8033L196.691 36.888C197 37.08 197.243 37.344 197.419 37.68C197.6 38.0106 197.691 38.3866 197.691 38.808C197.691 39.2293 197.592 39.608 197.395 39.944C197.203 40.28 196.941 40.5466 196.611 40.744C196.28 40.936 195.904 41.032 195.483 41.032C195.067 41.032 194.693 40.936 194.363 40.744C194.032 40.5466 193.771 40.28 193.579 39.944C193.387 39.608 193.288 39.2293 193.283 38.808V35.16C193.283 35.0373 193.32 34.9386 193.395 34.864C193.475 34.7893 193.573 34.752 193.691 34.752C193.813 34.752 193.912 34.7893 193.987 34.864C194.061 34.9386 194.099 35.0373 194.099 35.16V37.32C194.131 37.2813 194.164 37.2441 194.199 37.2083M197.481 39.994C197.281 40.3447 197.007 40.6237 196.662 40.8298L196.661 40.8305C196.313 41.0322 195.92 41.132 195.483 41.132C195.051 41.132 194.66 41.0321 194.312 40.8305M196.715 39.576C196.592 39.8053 196.424 39.9866 196.211 40.12C195.997 40.248 195.755 40.312 195.483 40.312C195.216 40.312 194.973 40.248 194.755 40.12L194.808 40.0352C194.807 40.0349 194.807 40.0347 194.806 40.0344C194.806 40.0342 194.805 40.0339 194.805 40.0337L194.755 40.12C194.541 39.9866 194.373 39.8053 194.251 39.576C194.128 39.3466 194.067 39.0906 194.067 38.808C194.067 38.52 194.128 38.264 194.251 38.04C194.373 37.816 194.541 37.64 194.755 37.512C194.973 37.3786 195.216 37.312 195.483 37.312C195.755 37.312 195.997 37.3786 196.211 37.512C196.424 37.64 196.592 37.816 196.715 38.04C196.843 38.264 196.907 38.52 196.907 38.808C196.907 39.0906 196.843 39.3466 196.715 39.576Z" fill="#001240"/>
</svg>
