<svg width="64" height="64" viewBox="0 0 64 64" fill="none" xmlns="http://www.w3.org/2000/svg">
<g clip-path="url(#clip0_516_790)">
<path d="M22.4766 50.1765L12.9285 55.3847C12.3682 55.6902 11.8647 56.0657 11.3962 56.4751C16.963 61.1688 24.1491 64.0005 32.0005 64.0005C39.7941 64.0005 46.9343 61.2111 52.4854 56.5813C51.9734 56.149 51.4179 55.7602 50.8021 55.4535L40.5778 50.3419C39.2567 49.6814 38.4223 48.3314 38.4223 46.8545V42.8431C38.7097 42.5158 39.0381 42.0956 39.3895 41.5993C40.783 39.631 41.8372 37.4659 42.5678 35.1945C43.8792 34.7899 44.8452 33.5788 44.8452 32.1394V27.8574C44.8452 26.9155 44.4262 26.0739 43.7753 25.4846V19.2947C43.7753 19.2947 45.0469 9.66211 32.0017 9.66211C18.9566 9.66211 20.2282 19.2947 20.2282 19.2947V25.4846C19.5761 26.0739 19.1583 26.9155 19.1583 27.8574V32.1394C19.1583 33.2672 19.7512 34.2598 20.6387 34.8334C21.7086 39.4909 24.5101 42.8431 24.5101 42.8431V46.7555C24.5089 48.1804 23.7288 49.493 22.4766 50.1765Z" fill="#BDC6D9"/>
<path d="M32.547 0.00476518C14.877 -0.297122 0.306707 13.7829 0.00481983 31.4529C-0.166652 41.4719 4.29886 50.4766 11.4089 56.4648C11.8738 56.0591 12.3725 55.6872 12.9268 55.3853L22.4749 50.1771C23.7271 49.4937 24.5072 48.1811 24.5072 46.7537V42.8413C24.5072 42.8413 21.7044 39.4891 20.6358 34.8316C19.7494 34.258 19.1553 33.2667 19.1553 32.1376V27.8556C19.1553 26.9137 19.5743 26.0721 20.2252 25.4828V19.2929C20.2252 19.2929 18.9537 9.66031 31.9988 9.66031C45.0439 9.66031 43.7724 19.2929 43.7724 19.2929V25.4828C44.4245 26.0721 44.8423 26.9137 44.8423 27.8556V32.1376C44.8423 33.577 43.8762 34.7882 42.5648 35.1927C41.8343 37.4641 40.7801 39.6292 39.3866 41.5975C39.0352 42.0938 38.7067 42.514 38.4193 42.8413V46.8528C38.4193 48.3296 39.2537 49.6808 40.5748 50.3402L50.7991 55.4517C51.4125 55.7584 51.9668 56.146 52.4776 56.5771C59.3727 50.8268 63.8273 42.2291 63.9928 32.547C64.2971 14.8769 50.2183 0.306652 32.547 0.00476518Z" fill="#272A47"/>
</g>
<defs>
<clipPath id="clip0_516_790">
<rect width="64" height="64" fill="white"/>
</clipPath>
</defs>
</svg>
