<svg width="20" height="20" viewBox="0 0 20 20" fill="none" xmlns="http://www.w3.org/2000/svg">
<g id="ic-russian-federation">
<path id="Path" d="M10 0C5.71053 0 2.06253 2.706 0.642029 6.5H19.3575C17.9375 2.706 14.2895 0 10 0Z" fill="#E0E1E2"/>
<path id="Path_2" d="M20 9.99976C20 8.76626 19.766 7.59076 19.358 6.49976H0.642C0.234 7.59076 0 8.76626 0 9.99976C0 11.2333 0.234 12.4088 0.642 13.4998H19.3575C19.766 12.4088 20 11.2333 20 9.99976Z" fill="#3F51B5"/>
<path id="Path_3" d="M19.358 13.5002H0.642029C2.06253 17.2942 5.71053 20.0002 10 20.0002C14.2895 20.0002 17.9375 17.2942 19.358 13.5002Z" fill="#FF3D00"/>
</g>
</svg>
