<svg width="20" height="20" viewBox="0 0 20 20" fill="none" xmlns="http://www.w3.org/2000/svg">
<g id="ic-great-britain">
<path id="Path" d="M7.49998 0.327881C5.47248 0.850881 3.69398 1.98588 2.37848 3.53438L7.49998 6.66538V0.327881Z" fill="#3F51B5"/>
<path id="Path_2" d="M2.30249 16.3821C3.62449 17.9746 5.43499 19.1396 7.49999 19.6726V13.2051L2.30249 16.3821Z" fill="#3F51B5"/>
<path id="Path_3" d="M0.328001 12.5001C0.334501 12.5261 0.341001 12.5516 0.348001 12.5776L0.474001 12.5001H0.328001Z" fill="white"/>
<path id="Path_4" d="M17.788 3.73438C16.458 2.08388 14.614 0.872881 12.5 0.327881V6.96638L17.788 3.73438Z" fill="#3F51B5"/>
<path id="Path_5" d="M12.5 19.6721C14.6515 19.1171 16.5205 17.8706 17.8555 16.1751L12.5 12.9021V19.6721Z" fill="#3F51B5"/>
<path id="Path_6" d="M0.376513 7.31052C0.359013 7.37302 0.344013 7.43702 0.328013 7.50002H0.686513L0.376513 7.31052Z" fill="white"/>
<path id="Path_7" d="M19.8755 8.50029C19.828 8.18529 19.7665 7.87579 19.6905 7.57129L18.171 8.50029H19.8755Z" fill="white"/>
<path id="Path_8" d="M0.686512 7.5H0.328012C0.243512 7.8275 0.176012 8.1605 0.124512 8.5H2.32251L0.686512 7.5Z" fill="white"/>
<path id="Path_9" d="M19.72 12.3143C19.7835 12.0468 19.834 11.7748 19.8755 11.4998H18.387L19.72 12.3143Z" fill="white"/>
<path id="Path_10" d="M2.11001 11.4998H0.124512C0.175512 11.8393 0.243512 12.1723 0.328012 12.4998H0.474512L2.11001 11.4998Z" fill="white"/>
<path id="Path_11" d="M8.5 7.27651V0.124512C8.1605 0.175512 7.8275 0.243512 7.5 0.328012V6.66551L8.5 7.27651Z" fill="white"/>
<path id="Path_12" d="M11.5 12.2908V19.8753C11.8395 19.8243 12.1725 19.7563 12.5 19.6718V12.9018L11.5 12.2908Z" fill="white"/>
<path id="Path_13" d="M7.5 13.205V19.672C7.8275 19.7565 8.1605 19.824 8.5 19.8755V12.594L7.5 13.205Z" fill="white"/>
<path id="Path_14" d="M11.5925 7.34701L11.7345 7.43401L12.5 6.96601V0.328012C12.1725 0.243512 11.8395 0.176012 11.5 0.124512V7.49851L11.5925 7.34701Z" fill="white"/>
<path id="Path_15" d="M2.32254 8.50017H7.01754L8.50004 7.59417V7.27717L7.50004 6.66567L2.37854 3.53467C1.95154 4.03767 1.57204 4.58167 1.24954 5.16317L5.02504 7.50017H2.29704L0.650538 6.47667C0.547538 6.74967 0.455538 7.02717 0.376038 7.31067L0.686538 7.50017L2.32254 8.50017Z" fill="white"/>
<path id="Path_16" d="M11.7345 7.43412L13.4785 8.50012H18.171L19.6905 7.57112C19.528 6.92112 19.303 6.29762 19.02 5.70512L16.139 7.50012H13.411L18.317 4.45012C18.1515 4.20312 17.9735 3.96562 17.7875 3.73462L12.5 6.96612L11.7345 7.43412Z" fill="white"/>
<path id="Path_17" d="M5.025 7.50009L1.25 5.16309C1.0175 5.58259 0.822001 6.02309 0.651001 6.47659L2.297 7.50009H5.025Z" fill="#E53935"/>
<path id="Path_18" d="M16.139 7.4997L19.0205 5.7047C18.813 5.2697 18.5835 4.8477 18.3175 4.4502L13.411 7.4997H16.139Z" fill="#E53935"/>
<path id="Path_19" d="M11.5 11.4998V12.2908L12.5 12.9018L17.8555 16.1753C18.2415 15.6848 18.5835 15.1588 18.8735 14.6003L15.4855 12.4998H18.2135L19.443 13.2668C19.5505 12.9558 19.643 12.6388 19.7195 12.3148L18.387 11.4998H11.5Z" fill="white"/>
<path id="Path_20" d="M13.4785 8.49992L11.7345 7.43392L11.5925 7.34692L11.5 7.49842V8.49992H13.4785Z" fill="white"/>
<path id="Path_21" d="M8.50003 12.5938V11.4998H2.11003L0.474034 12.4998L0.347534 12.5773C0.523534 13.2378 0.763534 13.8708 1.06403 14.4703L4.16453 12.4998H6.89253L1.80153 15.7163C1.96053 15.9443 2.12553 16.1683 2.30253 16.3818L7.50003 13.2048L8.50003 12.5938Z" fill="white"/>
<path id="Path_22" d="M7.01752 8.49999H8.50002V7.59399L7.01752 8.49999Z" fill="white"/>
<path id="Path_23" d="M15.4855 12.5L18.873 14.6C19.095 14.173 19.2835 13.727 19.443 13.2665L18.2135 12.5H15.4855Z" fill="#E53935"/>
<path id="Path_24" d="M4.16446 12.5L1.06396 14.4705C1.28146 14.9045 1.52546 15.3215 1.80146 15.7165L6.89246 12.5H4.16446Z" fill="#E53935"/>
<path id="Path_25" d="M13.4785 8.50024H11.5V11.5002H18.387H19.8755C19.9495 11.0097 20 10.5112 20 10.0002C20 9.48924 19.9495 8.99074 19.8755 8.50024H18.171H13.4785Z" fill="#E53935"/>
<path id="Path_26" d="M8.5 11.5002V8.50024H7.0175H2.3225H0.1245C0.0505 8.99074 0 9.48924 0 10.0002C0 10.5112 0.0505 11.0097 0.1245 11.5002H2.11H8.5Z" fill="#E53935"/>
<path id="Path_27" d="M11.5 19.8755V12.291V11.5V8.5V7.4985V0.1245C11.0095 0.0505 10.511 0 10 0C9.489 0 8.9905 0.0505 8.5 0.1245V7.2765V7.5935V8.5V11.5V12.594V19.8755C8.9905 19.9495 9.489 20 10 20C10.511 20 11.0095 19.9495 11.5 19.8755Z" fill="#E53935"/>
</g>
</svg>
